<?xml version="1.0" encoding="utf-8"?>
<!-- Generator: Adobe Illustrator 24.3.0, SVG Export Plug-In . SVG Version: 6.00 Build 0)  -->
<svg version="1.1" id="Layer_1" xmlns="http://www.w3.org/2000/svg" xmlns:xlink="http://www.w3.org/1999/xlink" x="0px" y="0px"
	 viewBox="0 0 123.8 27" style="enable-background:new 0 0 123.8 27;" xml:space="preserve">
<style type="text/css">
	.st0{fill:#FFFFFF;}
	.st1{fill:#B18656;}
</style>
<g>
	<g>
		<path class="st0" d="M81.1,13c0.7-0.4,1.5-0.6,2.4-0.6c1.4,0,2.7,0.5,3.7,1.6l2.1-1.9c-0.7-0.8-1.5-1.4-2.6-1.8
			c-1-0.4-2.1-0.6-3.4-0.6c-1.5,0-2.8,0.3-4,0.9c-1.2,0.6-2.1,1.5-2.8,2.6c-0.7,1.1-1,2.4-1,3.8s0.3,2.7,1,3.8
			c0.7,1.1,1.6,2,2.8,2.6c1.2,0.6,2.5,0.9,4,0.9c1,0,2-0.2,3.1-0.5c1-0.3,1.9-0.8,2.7-1.3v-5.8h-3v4.2c-0.8,0.4-1.6,0.6-2.6,0.6
			c-0.9,0-1.7-0.2-2.4-0.6c-0.7-0.4-1.2-0.9-1.6-1.6s-0.6-1.5-0.6-2.4c0-0.9,0.2-1.7,0.6-2.4C79.8,14,80.4,13.4,81.1,13z M96.3,18.2
			h6.6v-2.6h-6.6v-3.1h7.5V9.9H93.1v14.2h11v-2.6h-7.7L96.3,18.2L96.3,18.2z M123.6,9.9h-2.7l-5.2,8.8l-5.3-8.8h-2.7v14.2h3.1v-8.3
			l4.2,6.8h1.5l4.2-7v8.5h3.1L123.6,9.9z M30.6,10.8h5.1v13.3h1V10.8h5.1V9.9H30.6V10.8z M55.9,16.4h-9.5V9.9h-1v14.2h1v-6.8h9.5
			v6.8h1V9.9h-1V16.4z M63.9,17.4h7.6v-0.9h-7.6v-5.6h8.5v-1h-9.5v14.2h9.8v-0.9h-8.8C63.9,23.2,63.9,17.4,63.9,17.4z"/>
	</g>
</g>
<g>
	<g>
		<g>
			<path class="st1" d="M27.1,10L15.3,1.4l-1.1-0.8l-0.8,0.6L1.7,9.7L1.4,10l-0.8,0.6l0.3,0.9L1,11.9l4.5,13.9l0.3,0.9h1.4h14.5h0.9
				l0.5-1.3l4.4-13.5l0.4-1.3L27.1,10z M14.7,3.2l9.2,6.7H12.5l0.6-1.7L14.7,3.2z M12.4,4.1L11,8.6l-0.4,1.3H4.5L12.4,4.1z
				 M9.5,13.4L9,15l-4.4-3.2h5.5L9.5,13.4z M6.4,22.7l-3-9.4l4.9,3.6L6.4,22.7z M7.7,24.7l1.7-5.4L9.8,18l3.7,2.7l5.6,4l0,0H7.7z
				 M21.5,24.2l-6.6-4.8l-4.4-3.2l0.7-2.2l0.7-2.2h13.6L21.5,24.2z"/>
		</g>
	</g>
	<g>
		<g>
			<path class="st1" d="M23,27H5.4L0,10.3L14.2,0l14.2,10.3L23,27z M6.1,26.1h16.2l5-15.4L14.2,1.2L1.1,10.7L6.1,26.1z M20.6,25.2
				H7.1l2.6-7.9L20.6,25.2z M8.4,24.3h9.4l-7.7-5.5L8.4,24.3z M21.7,24.9L9.9,16.3l1.7-5h14.6L21.7,24.9z M11.1,16l10.3,7.4L25,12.2
				H12.3L11.1,16z M6.4,24.1L2.5,12l6.4,4.6L6.4,24.1z M4.3,14.5l2.2,6.6L7.9,17L4.3,14.5z M9.2,15.7l-6.1-4.4h7.5L9.2,15.7z
				 M5.9,12.3l2.8,2l0.6-2H5.9z M25.3,10.4H11.9l2.6-7.9L25.3,10.4z M13.1,9.5h9.4L15,4L13.1,9.5z M10.9,10.4H3L13.4,3L10.9,10.4z
				 M5.9,9.5h4.3l1.3-4.1L5.9,9.5z"/>
		</g>
	</g>
</g>
</svg>
